<svg width="1800" height="1200" viewBox="0 0 1800 1200" xmlns="http://www.w3.org/2000/svg">

  <!-- Define X-axis and Y-axis -->
  <g id="x-axis">
    <line x1="60" y1="1050" x2="950" y2="1050" stroke="black" stroke-width="2"/>
    <!-- Draw tick marks and labels for X-axis -->
    <text x="60" y="1070">0</text>
    <text x="160" y="1070">10</text>
    <text x="260" y="1070">20</text>
    <text x="360" y="1070">30</text>
    <text x="460" y="1070">40</text>
    <text x="560" y="1070">50</text>
    <text x="660" y="1070">60</text>
    <text x="760" y="1070">70</text>
    <text x="860" y="1070">80</text>
    <text x="960" y="1070">90</text>
    <line x1="160" y1="1050" x2="160" y2="1060" stroke="gray" stroke-width="2"/>
    <line x1="260" y1="1050" x2="260" y2="1060" stroke="gray" stroke-width="2"/>
    <line x1="360" y1="1050" x2="360" y2="1060" stroke="gray" stroke-width="2"/>
    <line x1="460" y1="1050" x2="460" y2="1060" stroke="gray" stroke-width="2"/>
    <line x1="560" y1="1050" x2="560" y2="1060" stroke="gray" stroke-width="2"/>
    <line x1="660" y1="1050" x2="660" y2="1060" stroke="gray" stroke-width="2"/>
    <line x1="760" y1="1050" x2="760" y2="1060" stroke="gray" stroke-width="2"/>
    <line x1="860" y1="1050" x2="860" y2="1060" stroke="gray" stroke-width="2"/>
    <line x1="960" y1="1050" x2="960" y2="1060" stroke="gray" stroke-width="2"/>
  </g>

  <g id="y-axis">
    <line x1="60" y1="1050" x2="60" y2="50" stroke="black" stroke-width="2"/>
    <!-- Draw tick marks and labels for Y-axis -->
    <text x="10" y="1050">0</text>
    <text x="10" y="1005">1000</text>
    <text x="10" y="960">2000</text>
    <text x="10" y="915">3000</text>
    <text x="10" y="870">4000</text>
    <text x="10" y="825">5000</text>
    <text x="10" y="780">6000</text>
    <text x="10" y="735">7000</text>
    <text x="10" y="690">8000</text>
    <text x="10" y="645">9000</text>
    <text x="10" y="600">10000</text>
    <text x="10" y="555">11000</text>
    <text x="10" y="510">12000</text>
    <text x="10" y="465">13000</text>
    <text x="10" y="420">14000</text>
    <text x="10" y="375">15000</text>
    <text x="10" y="330">16000</text>
    <text x="10" y="285">17000</text>
    <text x="10" y="240">18000</text>
    <text x="10" y="195">19000</text>
    <text x="10" y="150">20000</text>
    <text x="10" y="105">21000</text>
    <text x="10" y="60">22000</text>
    <line x1="60" y1="1050" x2="70" y2="1050" stroke="black" stroke-width="2"/>
    <line x1="60" y1="1005" x2="70" y2="1005" stroke="black" stroke-width="2"/>
    <line x1="60" y1="960" x2="70" y2="960" stroke="black" stroke-width="2"/>
    <line x1="60" y1="915" x2="70" y2="915" stroke="black" stroke-width="2"/>
    <line x1="60" y1="870" x2="70" y2="870" stroke="black" stroke-width="2"/>
    <line x1="60" y1="825" x2="70" y2="825" stroke="black" stroke-width="2"/>
    <line x1="60" y1="780" x2="70" y2="780" stroke="black" stroke-width="2"/>
    <line x1="60" y1="735" x2="70" y2="735" stroke="black" stroke-width="2"/>
    <line x1="60" y1="690" x2="70" y2="690" stroke="black" stroke-width="2"/>
    <line x1="60" y1="645" x2="70" y2="645" stroke="black" stroke-width="2"/>
    <line x1="60" y1="600" x2="70" y2="600" stroke="black" stroke-width="2"/>
    <line x1="60" y1="555" x2="70" y2="555" stroke="black" stroke-width="2"/>
    <line x1="60" y1="510" x2="70" y2="510" stroke="black" stroke-width="2"/>
    <line x1="60" y1="465" x2="70" y2="465" stroke="black" stroke-width="2"/>
    <line x1="60" y1="420" x2="70" y2="420" stroke="black" stroke-width="2"/>
    <line x1="60" y1="375" x2="70" y2="375" stroke="black" stroke-width="2"/>
    <line x1="60" y1="330" x2="70" y2="330" stroke="black" stroke-width="2"/>
    <line x1="60" y1="285" x2="70" y2="285" stroke="black" stroke-width="2"/>
    <line x1="60" y1="240" x2="70" y2="240" stroke="black" stroke-width="2"/>
    <line x1="60" y1="195" x2="70" y2="195" stroke="black" stroke-width="2"/>
    <line x1="60" y1="150" x2="70" y2="150" stroke="black" stroke-width="2"/>
    <line x1="60" y1="105" x2="70" y2="105" stroke="black" stroke-width="2"/>

  </g>


</svg>
